<svg width="615" height="80" viewBox="0 0 615 80" fill="none" xmlns="http://www.w3.org/2000/svg">
<path d="M153.757 7.03247H130.314C129.784 7.03247 129.353 7.46304 129.353 7.99413V69.1252C129.353 69.6565 129.784 70.0868 130.314 70.0868H154.658C161.322 70.0868 166.635 68.4656 170.597 65.1326C174.559 61.8899 176.631 57.2959 176.631 51.4408C176.631 47.4774 175.64 44.1445 173.659 41.4421C172.088 39.371 170.121 37.753 167.758 36.5428C167.022 36.1665 166.955 35.0454 167.619 34.5536C168.954 33.5646 170.157 32.2981 171.227 30.723C172.668 28.561 173.479 26.0389 173.479 23.2465C173.479 18.2021 171.588 14.2387 167.986 11.3562C164.383 8.47371 159.611 7.03247 153.757 7.03247ZM159.971 29.8223C158.35 31.0832 156.008 31.7138 152.947 31.7138H142.021C141.49 31.7138 141.06 31.2832 141.06 30.7522V17.5424C141.06 17.0113 141.49 16.5807 142.021 16.5807H152.767C155.919 16.5807 158.35 17.3014 159.971 18.5624C161.592 19.8235 162.402 21.7151 162.402 24.1473C162.402 26.6694 161.592 28.561 159.971 29.8223ZM165.194 50.8101C165.194 56.7555 161.232 59.7279 153.397 59.7279H142.021C141.49 59.7279 141.06 59.2973 141.06 58.7663V42.7641C141.06 42.233 141.49 41.8024 142.021 41.8024H153.397C157.359 41.8024 160.241 42.6132 162.222 44.1445C164.203 45.6758 165.194 47.9276 165.194 50.8101Z" fill="white"/>
<path d="M223.844 56.0854C223.985 55.5008 223.53 54.954 222.928 54.954H213.999C213.572 54.954 213.2 55.2379 213.054 55.6398C212.387 57.479 211.282 58.9444 209.676 59.9083C207.875 61.0793 205.533 61.6197 202.742 61.6197C199.23 61.6197 196.348 60.5389 194.187 58.3769C192.154 56.4247 190.855 53.8851 190.357 50.6911C190.27 50.13 190.716 49.6396 191.284 49.6396H222.834C223.336 49.6396 223.755 49.2525 223.79 48.7513C223.853 47.8374 223.904 46.8721 223.904 45.8561C223.904 42.0729 223.094 38.5598 221.473 35.2269C219.852 31.8942 217.33 29.1918 213.998 27.12C210.666 25.0482 206.614 23.9673 201.841 23.9673C197.068 23.9673 193.016 25.0482 189.684 27.2101C186.262 29.372 183.741 32.2545 182.12 35.7676C180.409 39.2804 179.598 43.0638 179.598 47.2073C179.598 51.351 180.499 55.1342 182.3 58.7372C184.101 62.3405 186.802 65.3129 190.315 67.4749C193.826 69.7267 197.969 70.8076 202.742 70.8076C208.325 70.8076 213.008 69.3665 216.97 66.484C220.537 63.8288 222.805 60.4095 223.844 56.0854ZM191.624 42.343C191.032 42.343 190.579 41.8106 190.706 41.2321C192.016 35.2972 195.728 32.2545 201.841 32.2545C204.993 32.2545 207.514 33.2454 209.496 35.0467C211.239 36.7118 212.286 38.7957 212.696 41.2986C212.787 41.8564 212.34 42.343 211.775 42.343H191.624Z" fill="white"/>
<path d="M240.281 24.6878C239.75 24.6878 239.32 24.2572 239.32 23.7261V12.3222C239.32 11.6681 238.681 11.2049 238.059 11.4082L228.906 14.403C228.511 14.5323 228.243 14.9011 228.243 15.317V24.6878V33.9657V54.2333C228.243 59.2775 229.684 63.1508 232.656 65.9434C235.538 68.7357 239.59 70.0868 244.633 70.0868H250.966C251.497 70.0868 251.927 69.6565 251.927 69.1252V61.6805C251.927 61.1495 251.497 60.7188 250.966 60.7188H245.894C243.732 60.7188 242.111 60.1784 241.031 59.0074C239.86 57.8364 239.32 56.1249 239.32 53.7828V34.9274C239.32 34.3964 239.75 33.9657 240.281 33.9657H250.966C251.497 33.9657 251.927 33.5351 251.927 33.0041V25.6494C251.927 25.1183 251.497 24.6878 250.966 24.6878H240.281Z" fill="white"/>
<path d="M269.399 24.6878C268.868 24.6878 268.438 24.2572 268.438 23.7261V12.3222C268.438 11.6681 267.799 11.2049 267.178 11.4082L258.024 14.403C257.629 14.5323 257.361 14.9011 257.361 15.317V24.6878V33.9657V54.2333C257.361 59.2775 258.802 63.1508 261.774 65.9434C264.656 68.7357 268.708 70.0868 273.751 70.0868H280.084C280.614 70.0868 281.044 69.6565 281.044 69.1252V61.6805C281.044 61.1495 280.614 60.7188 280.084 60.7188H275.012C272.85 60.7188 271.229 60.1784 270.149 59.0074C268.978 57.8364 268.438 56.1249 268.438 53.7828V34.9274C268.438 34.3964 268.868 33.9657 269.399 33.9657H280.084C280.614 33.9657 281.044 33.5351 281.044 33.0041V25.6494C281.044 25.1183 280.614 24.6878 280.084 24.6878H269.399Z" fill="white"/>
<path d="M326.331 56.0854C326.471 55.5008 326.016 54.954 325.415 54.954H316.485C316.058 54.954 315.688 55.2379 315.542 55.6398C314.874 57.479 313.769 58.9444 312.164 59.9083C310.363 61.0793 308.021 61.6197 305.23 61.6197C301.717 61.6197 298.835 60.5389 296.673 58.3769C294.64 56.4247 293.341 53.8851 292.845 50.6911C292.757 50.13 293.203 49.6396 293.771 49.6396H325.321C325.823 49.6396 326.242 49.2525 326.278 48.7513C326.342 47.8374 326.391 46.8721 326.391 45.8561C326.391 42.0729 325.58 38.5598 323.959 35.2269C322.34 31.8942 319.817 29.1918 316.485 27.12C313.154 25.0482 309.102 23.9673 304.328 23.9673C299.555 23.9673 295.503 25.0482 292.172 27.2101C288.749 29.372 286.229 32.2545 284.607 35.7676C282.897 39.2804 282.086 43.0638 282.086 47.2073C282.086 51.351 282.985 55.1342 284.786 58.7372C286.587 62.3405 289.29 65.3129 292.801 67.4749C296.314 69.7267 300.456 70.8076 305.23 70.8076C310.812 70.8076 315.495 69.3665 319.458 66.484C323.024 63.8288 325.291 60.4095 326.331 56.0854ZM294.111 42.343C293.52 42.343 293.065 41.8106 293.192 41.2321C294.505 35.2972 298.214 32.2545 304.328 32.2545C307.481 32.2545 310.001 33.2454 311.984 35.0467C313.727 36.7118 314.772 38.7957 315.183 41.2986C315.274 41.8564 314.828 42.343 314.262 42.343H294.111Z" fill="white"/>
<path d="M344.745 37.929C346.366 35.3169 348.796 33.9657 352.218 33.9657H358.371C358.903 33.9657 359.334 33.5351 359.334 33.0041V25.6494C359.334 25.1183 358.903 24.6877 358.371 24.6877H354.019C351.049 24.6877 348.617 25.3183 346.816 26.5794C345.451 27.5352 344.24 28.905 343.264 30.7674C343.065 31.1467 342.403 31.0115 342.403 30.5834V25.6494C342.403 25.1183 341.973 24.6877 341.441 24.6877H332.287C331.758 24.6877 331.328 25.1183 331.328 25.6494V68.9439C331.328 69.5409 331.865 69.9936 332.453 69.8915L341.606 68.302C342.067 68.222 342.403 67.8223 342.403 67.3544V48.6485C342.403 44.1445 343.123 40.5415 344.745 37.929Z" fill="white"/>
<path d="M383.3 68.1054C386.901 69.9068 391.044 70.8075 395.817 70.8075C400.409 70.8075 404.46 70.087 408.062 68.5556C411.576 67.0243 414.367 64.8624 416.347 61.9799C418.33 59.1876 419.32 55.8547 419.32 51.9813C419.32 47.6577 418.33 44.2348 416.347 41.7126C414.367 39.1904 411.934 37.3888 409.234 36.3079C406.532 35.2268 402.93 34.146 398.608 33.0652C395.365 32.3443 392.935 31.714 391.135 31.0834C389.334 30.4528 387.891 29.5521 386.722 28.381C385.55 27.3001 385.009 25.7688 385.009 23.8772C385.009 21.7153 385.911 19.9137 387.712 18.5626C389.513 17.3015 391.943 16.5809 395.095 16.5809C398.338 16.5809 401.038 17.4816 403.109 19.103C404.885 20.6361 406.01 22.6028 406.482 24.9384C406.579 25.4107 406.981 25.7688 407.464 25.7688H416.962C417.511 25.7688 417.949 25.3101 417.902 24.7636C417.593 21.3006 416.534 18.2127 414.728 15.4999C412.745 12.6174 410.133 10.3655 406.714 8.74409C403.291 7.12271 399.419 6.31201 395.095 6.31201C390.864 6.31201 387.081 7.12272 383.84 8.56396C380.506 10.0052 377.897 12.077 376.093 14.7793C374.292 17.4816 373.393 20.4542 373.393 23.8772C373.393 28.2009 374.292 31.5339 376.275 34.0561C378.255 36.578 380.597 38.4699 383.3 39.6409C385.999 40.8116 389.601 41.8928 393.925 42.9736C396.987 43.7843 399.328 44.5049 401.129 45.1355C402.93 45.7661 404.372 46.6668 405.542 47.7477C406.623 48.9187 407.251 50.3601 407.251 52.1614C407.251 54.8638 406.173 56.9358 404.102 58.3769C402.031 59.8183 399.237 60.4486 395.817 60.4486C392.034 60.4486 389.063 59.4577 386.81 57.386C384.665 55.4878 383.426 52.9846 383.026 49.807C382.966 49.3077 382.549 48.9187 382.047 48.9187H372.503C371.957 48.9187 371.518 49.3741 371.559 49.9192C371.852 53.9198 372.922 57.4533 374.833 60.4486C376.904 63.7816 379.698 66.3038 383.3 68.1054Z" fill="white"/>
<path d="M437.822 24.6878C437.29 24.6878 436.86 24.2572 436.86 23.7261V12.3222C436.86 11.6681 436.22 11.2049 435.599 11.4082L426.446 14.403C426.052 14.5323 425.784 14.9011 425.784 15.317V24.6878V33.9657V54.2333C425.784 59.2775 427.224 63.1508 430.197 65.9434C433.079 68.7357 437.13 70.0868 442.174 70.0868H448.506C449.036 70.0868 449.469 69.6565 449.469 69.1252V61.6805C449.469 61.1495 449.036 60.7188 448.506 60.7188H443.434C441.272 60.7188 439.651 60.1784 438.572 59.0074C437.4 57.8364 436.86 56.1249 436.86 53.7828V34.9274C436.86 34.3964 437.29 33.9657 437.822 33.9657H448.506C449.036 33.9657 449.469 33.5351 449.469 33.0041V25.6494C449.469 25.1183 449.036 24.6878 448.506 24.6878H437.822Z" fill="white"/>
<path d="M485.111 26.1292C482.138 24.6879 478.718 23.9673 474.935 23.9673C471.063 23.9673 467.64 24.6879 464.67 26.1292C461.697 27.5704 459.355 29.4619 457.734 31.8942C456.223 34.0456 455.343 36.4089 455.034 38.9836C454.968 39.5336 455.412 40.0012 455.963 40.0012H463.928C464.441 40.0012 464.86 39.5927 464.94 39.0834C465.216 37.3226 466.087 35.8158 467.552 34.5063C469.262 33.0652 471.512 32.2545 474.394 32.2545C477.276 32.2545 479.526 32.975 481.148 34.4164C482.77 35.8575 483.671 37.6591 483.671 39.8211C483.671 40.8117 483.31 41.5325 482.77 42.0729C482.229 42.6134 481.418 42.8837 480.337 42.8837H471.964C466.829 42.8837 462.687 44.2349 459.626 46.7571C456.473 49.3692 454.943 52.8823 454.943 57.2059C454.943 59.8183 455.574 62.1601 456.835 64.2321C458.095 66.3038 459.805 67.9251 462.146 69.0961C464.488 70.2671 467.099 70.8076 470.072 70.8076C473.313 70.8076 476.107 70.1772 478.536 68.826C480.354 67.8161 481.768 66.5546 482.781 65.0037C483.01 64.6528 483.671 64.8084 483.671 65.2277V68.9408C483.671 69.5389 484.209 69.9918 484.799 69.8878L493.773 68.3041C494.231 68.223 494.568 67.8236 494.568 67.3571V40.9019C494.568 37.5689 493.666 34.5965 492.044 32.0743C490.423 29.5521 488.081 27.5704 485.111 26.1292ZM480.698 59.3678C478.718 61.5298 476.107 62.6106 472.684 62.6106C470.522 62.6106 468.812 62.0702 467.552 60.9894C466.289 59.9083 465.66 58.5571 465.66 56.7557C465.66 54.7739 466.38 53.2426 467.822 51.9814C469.262 50.8103 471.154 50.18 473.495 50.18H482.949C483.349 50.18 483.671 50.5025 483.671 50.9005C483.671 54.4136 482.679 57.2059 480.698 59.3678Z" fill="white"/>
<path d="M509.551 67.7449C512.974 69.8169 517.025 70.8076 521.708 70.8076C525.489 70.8076 529.002 70.087 532.154 68.6459C535.307 67.2045 537.916 65.223 539.898 62.6106C541.655 60.372 542.847 57.7786 543.47 54.8936C543.597 54.3143 543.142 53.783 542.551 53.783H533.28C532.83 53.783 532.447 54.0942 532.314 54.5215C531.694 56.5083 530.508 58.0721 528.82 59.2776C526.931 60.6288 524.678 61.2594 522.157 61.2594C518.376 61.2594 515.403 59.9985 513.332 57.386C511.17 54.8638 510.18 51.5311 510.18 47.3874C510.18 43.3339 511.17 40.0012 513.241 37.3888C515.315 34.8666 518.194 33.5154 521.978 33.5154C524.59 33.5154 526.84 34.3262 528.82 35.7676C530.569 37.0376 531.683 38.6578 532.232 40.5041C532.361 40.9408 532.75 41.2622 533.205 41.2622H542.342C542.913 41.2622 543.359 40.767 543.271 40.2031C542.797 37.2216 541.672 34.5935 539.898 32.2545C537.916 29.642 535.307 27.5704 532.154 26.1292C528.911 24.6879 525.489 23.9673 521.708 23.9673C517.025 23.9673 512.974 25.0482 509.551 27.12C506.038 29.1918 503.338 31.9841 501.446 35.5874C499.554 39.1905 498.655 43.0638 498.655 47.3874C498.655 51.7113 499.554 55.6746 501.446 59.2776C503.338 62.8809 506.038 65.6732 509.551 67.7449Z" fill="white"/>
<path d="M579.032 69.6756C579.211 69.9333 579.506 70.0869 579.821 70.0869H590.852C591.635 70.0869 592.09 69.1964 591.63 68.5606L573.235 43.1992C572.954 42.8116 573.001 42.2759 573.345 41.9429L589.495 26.3412C590.116 25.7404 589.691 24.6878 588.828 24.6878H577.543C577.295 24.6878 577.057 24.7829 576.878 24.9534L561.401 39.7126C560.792 40.2963 559.777 39.8624 559.777 39.0166V6.55735C559.777 5.90325 559.14 5.44 558.516 5.64333L549.363 8.63809C548.969 8.76739 548.701 9.13616 548.701 9.55211V69.1253C548.701 69.6566 549.131 70.0869 549.664 70.0869H558.817C559.346 70.0869 559.777 69.6566 559.777 69.1253V55.4519C559.777 55.1912 559.884 54.9418 560.072 54.7606L564.369 50.6039C564.796 50.1923 565.488 50.2593 565.827 50.7449L579.032 69.6756Z" fill="white"/>
<path d="M98.4402 66.0235L65.3609 3.97661C62.4751 -1.436 54.6903 -1.29294 52.0033 4.22047L43.8685 20.598C42.8856 22.6146 43.3412 23.3343 44.1586 24.5048C44.8144 25.4437 46.3362 25.5178 46.9556 24.5546C47.5645 23.6076 48.9754 23.6948 49.4633 24.7097L70.731 68.9586C72.3339 72.5644 75.6907 75.0767 79.5958 75.5906L90.8476 77.0295C96.9022 77.8262 101.319 71.424 98.4402 66.0235Z" fill="white"/>
<path d="M54.4416 70.3009L35.7213 16.3457C33.6422 10.3537 24.9252 10.6133 23.2191 16.7175L17.524 37.1031C16.878 39.4173 16.6295 40.7558 17.5257 42.9875H19.6883L27.5501 68.1177C28.7677 71.1502 31.2826 73.5039 34.4263 74.5513L46.1466 78.4578C51.2864 80.1704 56.192 75.3469 54.4416 70.3009Z" fill="white"/>
<path d="M3.22516 34.2177L0.057236 61.704C-0.268214 64.5263 0.807854 67.3294 2.93807 69.2077L10.7883 76.1302C13.4763 78.501 17.6513 76.1906 17.0738 72.6519L10.7785 34.04C10.0651 29.6681 3.73253 29.8174 3.22516 34.2177Z" fill="white"/>
</svg>
