<svg width="414" height="80" viewBox="0 0 414 80" fill="none" xmlns="http://www.w3.org/2000/svg">
<path fill-rule="evenodd" clip-rule="evenodd" d="M105.347 64.6449H84V15.3547H105.347C120.723 15.3547 128.423 23.1232 128.423 38.6545C128.417 55.9776 120.723 64.6449 105.347 64.6449ZM93.1208 56.7104H103.965C114.182 56.7104 119.285 50.6936 119.285 38.6488C119.285 28.3957 114.176 23.2663 103.965 23.2663H93.1208V56.7104Z" fill="white"/>
<path fill-rule="evenodd" clip-rule="evenodd" d="M137.976 64.6449H128.604L149.512 15.3547H159.323L180.675 64.6449H170.864L164.665 51.2031H148.895L152.029 43.2744H162.257L154.198 24.7605L137.976 64.6449Z" fill="white"/>
<path fill-rule="evenodd" clip-rule="evenodd" d="M175.522 15.3547H212.885V23.2778H198.77V64.6449H189.649V23.2778H175.522V15.3547Z" fill="white"/>
<path fill-rule="evenodd" clip-rule="evenodd" d="M217.576 64.6449H208.204L229.111 15.3547H238.923L260.275 64.6449H250.452L244.254 51.2031H228.483L231.617 43.2744H241.845L233.791 24.7605L217.576 64.6449Z" fill="white"/>
<path fill-rule="evenodd" clip-rule="evenodd" d="M287.678 64.6449H266.331V15.3547H287.678C303.065 15.3547 310.754 23.1232 310.754 38.6545C310.754 55.9776 303.065 64.6449 287.678 64.6449ZM275.458 56.7104H286.302C296.513 56.7104 301.633 50.6936 301.633 38.6488C301.633 28.3957 296.519 23.2663 286.302 23.2663H275.458V56.7104Z" fill="white"/>
<path fill-rule="evenodd" clip-rule="evenodd" d="M316.935 40.0687C316.935 23.3524 325.182 15 341.666 15C357.898 15 366.003 23.3524 366.003 40.0687C366.003 56.6877 357.893 65 341.666 65C325.913 65 317.671 56.6877 316.935 40.0687ZM341.666 57.054C351.574 57.054 356.534 51.3236 356.534 39.8512C356.534 28.5619 351.574 22.9116 341.666 22.9116C331.495 22.9116 326.409 28.5619 326.409 39.8512C326.409 51.3236 331.495 57.054 341.666 57.054Z" fill="white"/>
<path fill-rule="evenodd" clip-rule="evenodd" d="M404.079 44.7V56.2411C401.973 56.7907 400.089 57.0655 398.428 57.0655C387.27 57.0655 381.699 51.1461 381.699 39.313C381.699 28.3845 387.612 22.9288 399.433 22.9288C404.37 22.9288 408.959 23.8505 413.205 25.6881V17.4101C408.959 15.8072 404.136 15 398.742 15C381.066 15 372.225 23.1005 372.225 39.313C372.225 56.43 380.912 65 398.291 65C404.267 65 409.233 64.1298 413.205 62.3781V36.588H398.468L395.386 44.6943L404.079 44.7Z" fill="white"/>
<path fill-rule="evenodd" clip-rule="evenodd" d="M62.4176 56.799L55.7792 52.4101L50.2426 61.6852L43.8049 59.7986L38.1345 68.4777L38.4257 71.2089L69.2488 65.5136L67.4584 46.1978L62.4176 56.799ZM33.6721 48.4751L38.6185 47.7923C39.4173 48.1515 39.9761 48.2896 40.9362 48.5343C42.4315 48.925 44.159 49.3 46.7207 48.0054C47.3149 47.7094 48.5584 46.5688 49.0581 45.9215L69.3197 42.2351L71.3856 67.3252L36.6746 73.6007L33.6721 48.4751ZM71.3069 39.4329L69.3079 39.8157L65.4673 0L0 7.61346L8.06683 73.2613L15.7284 72.1443C15.1184 71.2681 14.1622 70.2064 12.537 68.8487C10.2783 66.97 11.0771 63.7731 12.4111 61.7562C14.1701 58.3501 23.2482 54.0165 22.7327 48.5698C22.5478 46.5885 22.233 44.0112 20.3993 42.243C20.3324 42.9772 20.4543 43.6836 20.4543 43.6836C20.4543 43.6836 19.7027 42.7206 19.325 41.4063C18.9512 40.9011 18.66 40.7432 18.2625 40.0683C17.9792 40.8459 18.0186 41.7497 18.0186 41.7497C18.0186 41.7497 17.4047 40.2894 17.3024 39.0579C16.9364 39.6105 16.8459 40.6564 16.8459 40.6564C16.8459 40.6564 16.0471 38.3554 16.2281 37.1161C15.8621 36.0386 14.78 33.8994 15.0869 29.0369C17.0859 30.442 21.4853 30.1065 23.1971 27.5726C23.7676 26.732 24.1572 24.4428 22.9137 19.9315C22.1149 17.0385 20.1395 12.7286 19.3683 11.0906L19.2778 11.1577C19.6831 12.476 20.5212 15.2348 20.8439 16.5767C21.8159 20.638 22.0756 22.051 21.6191 23.9218C21.2295 25.5479 20.3009 26.6135 17.9398 27.8055C15.5788 29.0014 12.4465 26.0926 12.2458 25.9347C9.95172 24.1034 8.17701 21.1117 7.98026 19.6592C7.77564 18.0686 8.89319 17.1135 9.45984 15.815C8.65315 16.0479 7.75203 16.4583 7.75203 16.4583C7.75203 16.4583 8.8263 15.3414 10.1524 14.3783C10.7033 14.0152 11.022 13.7824 11.6005 13.3009C10.7623 13.289 10.0816 13.3087 10.0816 13.3087C10.0816 13.3087 11.4785 12.551 12.9266 12.0023C11.8681 11.955 10.8528 11.9944 10.8528 11.9944C10.8528 11.9944 13.9694 10.5973 16.4288 9.57109C18.1209 8.87645 19.7736 9.08168 20.7022 10.4276C21.9221 12.1918 23.201 13.1509 25.9162 13.7468C27.5846 13.0048 28.0883 12.6259 30.1818 12.0537C32.0234 10.021 33.4715 9.75659 33.4715 9.75659C33.4715 9.75659 32.7553 10.4157 32.5625 11.4537C33.6092 10.6288 34.7543 9.93815 34.7543 9.93815C34.7543 9.93815 34.3096 10.4868 33.8964 11.359L33.9909 11.5011C35.2107 10.767 36.6431 10.1907 36.6431 10.1907C36.6431 10.1907 36.2339 10.7117 35.7538 11.3827C36.6746 11.3748 38.5398 11.4222 39.2599 11.505C43.5334 11.5998 44.4187 6.92671 46.0597 6.34257C48.1137 5.60846 49.0306 5.16247 52.5289 8.60806C55.5313 11.5682 57.8766 16.8609 56.7118 18.0489C55.7359 19.0317 53.8077 17.6661 51.675 14.994C50.5456 13.5811 49.6956 11.9116 49.2943 9.78817C48.9558 7.9963 47.6455 6.95828 47.6455 6.95828C47.6455 6.95828 48.4049 8.65937 48.4049 10.1592C48.4049 10.9801 48.5072 14.0429 49.8176 15.7597C49.6878 16.0123 49.6287 17.003 49.4831 17.1924C47.9603 15.3453 44.6863 14.0231 44.1551 13.6324C45.9613 15.1164 50.1127 18.5265 51.7064 21.7945C53.2136 24.8848 52.3242 27.7187 53.0876 28.4528C53.3041 28.662 56.3301 32.443 56.9125 34.3454C57.9277 37.6568 56.9715 41.1379 55.6454 43.2968L51.9347 43.877C51.3916 43.7271 51.0257 43.6481 50.5377 43.3679C50.8053 42.8903 51.3405 41.7023 51.3444 41.4576L51.1359 41.0906C49.9789 42.7324 48.0468 44.327 46.4374 45.2426C44.3322 46.4385 41.9082 46.253 40.3302 45.7636C35.8482 44.3783 31.6102 41.3392 30.591 40.542C30.591 40.542 30.5595 41.1774 30.7523 41.3234C31.8817 42.6022 34.471 44.9151 36.9736 46.5254L31.6417 47.1134L34.164 66.8042C33.0465 66.9661 32.8733 67.045 31.6495 67.2186C30.5713 63.3981 28.5094 60.8998 26.2546 59.4473C24.2674 58.1646 21.5247 57.8765 18.8961 58.3975L18.7269 58.5948C20.5527 58.4054 22.7091 58.6698 24.9206 60.0749C27.0928 61.4523 28.8438 65.0124 29.4892 67.1555C30.3156 69.8946 30.8861 72.8232 28.6628 75.9293C27.0809 78.1356 22.4691 79.3552 18.7387 76.7187C19.7342 78.3251 21.08 79.6394 22.8901 79.8841C25.5817 80.2511 28.1355 79.7814 29.8906 77.9738C31.3898 76.4266 32.1886 73.1902 31.9761 69.7841L34.349 69.4407L35.2068 75.5544L74.51 70.8063L71.3069 39.4329ZM47.3936 22.8246C47.2834 23.0772 47.1103 23.239 47.37 24.056L47.3858 24.1034L47.4251 24.2099L47.5314 24.4546C47.9996 25.4098 48.5112 26.3136 49.3651 26.7754C49.5854 26.7398 49.8176 26.7122 50.0537 26.7004C50.8565 26.6649 51.3641 26.7912 51.6868 26.9688C51.7143 26.8069 51.7222 26.5741 51.7025 26.2268C51.6395 25.0151 51.9425 22.9548 49.6209 21.8694C48.7433 21.4629 47.5156 21.5853 47.1064 22.0984C47.1811 22.1063 47.248 22.122 47.2992 22.1418C47.9249 22.3549 47.5077 22.568 47.3936 22.8246ZM53.9022 34.1323C53.5992 33.9626 52.1747 34.0297 51.1752 34.1481C49.2706 34.373 47.2126 35.0361 46.7601 35.3874C45.9416 36.0228 46.3115 37.1319 46.9175 37.5858C48.6174 38.8567 50.1049 39.7131 51.675 39.5039C52.639 39.3776 53.489 37.8463 54.0911 36.453C54.5082 35.4979 54.5082 34.4678 53.9022 34.1323ZM37.0327 24.3244C37.5718 23.8113 34.3568 23.1403 31.862 24.8454C30.0244 26.1044 29.9653 28.804 31.7243 30.3315C31.9014 30.4815 32.047 30.592 32.1808 30.6788C32.6963 30.4341 33.2826 30.1894 33.9555 29.9723C35.0966 29.6013 36.041 29.4079 36.8202 29.3092C37.194 28.8909 37.6269 28.1568 37.5167 26.8267C37.3711 25.0151 36.0056 25.3032 37.0327 24.3244Z" fill="white"/>
</svg>
