<svg width="296" height="80" viewBox="0 0 296 80" fill="none" xmlns="http://www.w3.org/2000/svg">
<path d="M56.9033 34.1966H32.0767C31.4362 34.1966 30.9164 34.7171 30.9164 35.3575V47.4958C30.9164 48.1362 31.4362 48.6573 32.0767 48.6573H41.7616V63.738C41.7616 63.738 39.5869 64.4794 33.5746 64.4794C26.4815 64.4794 16.5726 61.8876 16.5726 40.0987C16.5726 18.305 26.8906 15.4376 36.5774 15.4376C44.9624 15.4376 48.5748 16.914 50.8732 17.6252C51.5954 17.8467 52.2635 17.1275 52.2635 16.4865L55.0331 4.7585C55.0331 4.4589 54.9316 4.09778 54.5896 3.85232C53.6563 3.18669 47.9615 0 33.5746 0C17.0008 0 0 7.05132 0 40.9483C0 74.8465 19.4646 79.8979 35.8668 79.8979C49.4478 79.8979 57.6864 74.0942 57.6864 74.0942C58.026 73.9065 58.0629 73.4322 58.0629 73.2144V35.3575C58.0629 34.7171 57.5437 34.1966 56.9033 34.1966ZM184.782 4.24297C184.782 3.59702 184.27 3.07595 183.629 3.07595H169.65C169.012 3.07595 168.493 3.59702 168.493 4.24297C168.493 4.24605 168.496 31.2578 168.496 31.2578H146.707V4.24297C146.707 3.59702 146.193 3.07595 145.553 3.07595H131.575C130.939 3.07595 130.42 3.59702 130.42 4.24297V77.391C130.42 78.0363 130.939 78.5617 131.575 78.5617H145.553C146.193 78.5617 146.707 78.0363 146.707 77.391V46.103H168.496C168.496 46.103 168.458 77.3885 168.458 77.391C168.458 78.0363 168.977 78.5617 169.616 78.5617H183.628C184.269 78.5617 184.78 78.0363 184.782 77.391V4.24297ZM83.2371 14.0227C83.2371 8.98917 79.2015 4.92152 74.2227 4.92152C69.2489 4.92152 65.2102 8.98917 65.2102 14.0227C65.2102 19.0506 69.2489 23.1293 74.2227 23.1293C79.2015 23.1293 83.2371 19.0506 83.2371 14.0227ZM82.1279 61.9989V28.2336C82.1279 27.5925 81.6106 27.0684 80.9714 27.0684H67.0367C66.3975 27.0684 65.8254 27.7279 65.8254 28.3689V76.7444C65.8254 78.1661 66.7113 78.5888 67.858 78.5888H80.4128C81.7902 78.5888 82.1279 77.9127 82.1279 76.7216V61.9989ZM238.209 27.0684H224.337C223.701 27.0684 223.183 27.5925 223.183 28.2379V64.1047C223.183 64.1047 219.659 66.683 214.657 66.683C209.655 66.683 208.328 64.4135 208.328 59.516V28.2379C208.328 27.5925 207.811 27.0684 207.174 27.0684H193.095C192.46 27.0684 191.939 27.5925 191.939 28.2379V61.8845C191.939 76.4313 200.047 79.9902 211.2 79.9902C220.35 79.9902 227.728 74.9351 227.728 74.9351C227.728 74.9351 228.079 77.5989 228.238 77.9151C228.397 78.2301 228.811 78.5481 229.258 78.5481L238.215 78.5088C238.85 78.5088 239.371 77.9834 239.371 77.3411L239.366 28.2379C239.366 27.5925 238.848 27.0684 238.209 27.0684ZM270.17 66.7107C265.358 66.5642 262.095 64.3809 262.095 64.3809V41.2165C262.095 41.2165 265.314 39.243 269.265 38.8899C274.26 38.4426 279.073 39.9517 279.073 51.8679C279.073 64.4338 276.901 66.9137 270.17 66.7107ZM275.641 25.4972C267.762 25.4972 262.403 29.0124 262.403 29.0124V4.24297C262.403 3.59702 261.887 3.07595 261.25 3.07595H247.232C246.594 3.07595 246.076 3.59702 246.076 4.24297V77.391C246.076 78.0363 246.594 78.5617 247.233 78.5617H256.96C257.398 78.5617 257.729 78.3359 257.974 77.9403C258.216 77.5472 258.565 74.5679 258.565 74.5679C258.565 74.5679 264.297 80 275.148 80C287.888 80 295.194 73.538 295.194 50.9907C295.194 28.4433 283.525 25.4972 275.641 25.4972ZM122.361 26.9429H111.875C111.875 26.9429 111.859 13.0931 111.859 13.09C111.859 12.5659 111.589 12.3038 110.983 12.3038H96.6932C96.1377 12.3038 95.8393 12.548 95.8393 13.082V27.3975C95.8393 27.3975 88.6785 29.1262 88.1943 29.2658C87.712 29.4055 87.3571 29.8503 87.3571 30.3806V39.3765C87.3571 40.0237 87.8738 40.5454 88.513 40.5454H95.8393V62.1865C95.8393 78.2609 107.115 79.8401 114.723 79.8401C118.2 79.8401 122.358 78.7235 123.045 78.47C123.46 78.3174 123.701 77.8874 123.701 77.4211L123.713 67.5252C123.713 66.8798 123.168 66.3575 122.554 66.3575C121.943 66.3575 120.38 66.6061 118.771 66.6061C113.62 66.6061 111.875 64.2111 111.875 61.1112C111.875 58.0137 111.874 40.5454 111.874 40.5454H122.361C123 40.5454 123.517 40.0237 123.517 39.3765V28.1087C123.517 27.4633 123 26.9429 122.361 26.9429Z" fill="white"/>
</svg>
