<svg width="685" height="80" viewBox="0 0 685 80" fill="none" xmlns="http://www.w3.org/2000/svg">
<mask id="mask0_81_3" style="mask-type:luminance" maskUnits="userSpaceOnUse" x="0" y="0" width="81" height="80">
<path d="M80.1444 0H0V80H80.1444V0Z" fill="white"/>
</mask>
<g mask="url(#mask0_81_3)">
<path d="M79.2781 75.2346L42.5994 1.87726C41.8772 0.288813 41.1553 0 40.2888 0C39.5669 0 38.7003 0.288813 37.834 1.73286C32.6353 9.96389 30.3249 19.4945 30.3249 29.4584C30.3249 43.3213 37.4006 56.3176 47.7979 77.2562C48.9532 79.5668 49.8195 80 51.8411 80H77.2563C79.1335 80 80.1444 79.2781 80.1444 77.834C80.1444 77.1119 80 76.6787 79.2781 75.2346ZM25.9927 40.5775C23.1046 36.2456 22.2383 35.9566 21.5162 35.9566C20.7942 35.9566 20.361 36.2456 19.0614 38.8447L0.722021 75.5234C0.144404 76.6787 0 77.1119 0 77.6896C0 78.8447 1.01083 80 3.1769 80H29.0252C30.7581 80 32.0578 78.5559 32.7797 75.8122C33.6462 72.3465 33.935 69.314 33.935 65.704C33.935 55.5957 29.4584 45.7763 25.9927 40.5775Z" fill="white"/>
</g>
<path d="M372.327 28.2775C372.327 38.5782 376.986 46.6717 395.869 50.3504C406.907 52.8031 409.358 54.5197 409.358 58.1986C409.358 61.8775 406.907 64.0846 399.06 64.0846C389.983 64.0846 379.192 60.8964 372.08 56.7271V73.4044C377.721 76.1022 385.079 79.2904 399.06 79.2904C418.68 79.2904 426.282 70.4613 426.282 57.7082M426.282 57.9533C426.282 45.6906 419.906 40.0497 401.511 36.1257C391.455 33.9184 389.004 31.7111 389.004 28.5228C389.004 24.5988 392.681 22.8819 399.305 22.8819C407.397 22.8819 415.244 25.3346 422.847 28.7682V12.8266C417.453 10.1288 409.358 8.16675 399.794 8.16675C381.646 8.16675 372.327 16.0148 372.327 28.7682" fill="white"/>
<path d="M623.468 8.65845V78.5559H638.428V25.3357L644.559 39.3152L665.651 78.5559H684.291V8.65845H669.576V53.7852L663.934 40.5414L647.013 8.65845H623.468Z" fill="white"/>
<path d="M528.799 8.65845H512.612V78.5559H528.799V8.65845Z" fill="white"/>
<path d="M493.975 57.7098C493.975 45.4469 487.596 39.8062 469.203 35.882C459.147 33.6747 456.696 31.4676 456.696 28.2791C456.696 24.3551 460.374 22.6385 466.995 22.6385C475.089 22.6385 482.937 25.0909 490.54 28.5244V12.5829C485.145 9.88512 477.051 7.9231 467.487 7.9231C449.338 7.9231 440.017 15.7711 440.017 28.5244C440.017 38.8251 444.676 46.9184 463.562 50.5973C474.6 53.0498 477.051 54.7667 477.051 58.4453C477.051 62.1242 474.6 64.3315 466.75 64.3315C457.676 64.3315 446.885 61.1433 439.772 56.974V73.6511C445.413 76.3489 452.771 79.5373 466.75 79.5373C486.125 79.5373 493.975 70.7082 493.975 57.7098Z" fill="white"/>
<path d="M246.268 8.65845V78.5559H279.621L284.771 63.3501H262.452V8.65845H246.268Z" fill="white"/>
<path d="M180.294 8.65845V23.619H198.198V78.5559H214.63V23.619H234.005V8.65845H180.294Z" fill="white"/>
<path d="M156.504 8.65845H135.167L110.887 78.5559H129.526L132.96 66.7837C137.129 68.0099 141.543 68.7457 145.958 68.7457C150.373 68.7457 154.787 68.0099 158.956 66.7837L162.39 78.5559H181.029C180.784 78.5559 156.504 8.65845 156.504 8.65845ZM145.713 54.0305C142.524 54.0305 139.581 53.5399 136.884 52.8041L145.713 22.3928L154.542 52.8041C151.844 53.5399 148.901 54.0305 145.713 54.0305Z" fill="white"/>
<path d="M337.255 8.65845H315.918L291.394 78.5559H310.032L313.467 66.7837C317.635 68.0099 322.05 68.7457 326.464 68.7457C330.879 68.7457 335.294 68.0099 339.463 66.7837L342.896 78.5559H361.537L337.255 8.65845ZM326.464 54.0305C323.276 54.0305 320.333 53.5399 317.635 52.8041L326.464 22.3928L335.294 52.8041C332.595 53.5399 329.652 54.0305 326.464 54.0305Z" fill="white"/>
<path d="M587.417 8.65845H566.081L541.799 78.5559H560.439L563.872 66.7837C568.042 68.0099 572.457 68.7457 576.871 68.7457C581.286 68.7457 585.701 68.0099 589.868 66.7837L593.303 78.5559H611.941L587.417 8.65845ZM576.871 54.0305C573.683 54.0305 570.74 53.5399 568.042 52.8041L576.871 22.3928L585.701 52.8041C583.002 53.5399 579.814 54.0305 576.871 54.0305Z" fill="white"/>
</svg>
