<svg width="200" height="200" viewBox="0 0 200 200" fill="none" xmlns="http://www.w3.org/2000/svg">
<path d="M186.258 66.8248L133.175 13.7415C124.376 4.94296 112.443 0 99.9998 0C87.5568 0 75.6234 4.94296 66.8248 13.7415L13.7415 66.8248C4.94296 75.6234 0 87.5568 0 99.9998C0 112.443 4.94296 124.376 13.7415 133.175L66.8248 186.258C75.6234 195.057 87.5568 200 99.9998 200C112.443 200 124.376 195.057 133.175 186.258L186.258 133.175C195.057 124.376 200 112.443 200 99.9998C200 87.5568 195.057 75.6234 186.258 66.8248ZM99.9998 132.941C95.6739 132.941 91.3903 132.089 87.3936 130.434C83.3969 128.778 79.7655 126.352 76.7065 123.293C73.6476 120.234 71.2212 116.603 69.5657 112.606C67.9102 108.609 67.0581 104.326 67.0581 99.9998C67.0581 95.6739 67.9102 91.3903 69.5657 87.3936C71.2212 83.3969 73.6476 79.7655 76.7065 76.7065C79.7655 73.6476 83.3969 71.2212 87.3936 69.5657C91.3903 67.9102 95.6739 67.0581 99.9998 67.0581C108.736 67.0581 117.115 70.5288 123.293 76.7065C129.471 82.8843 132.941 91.2631 132.941 99.9998C132.941 108.736 129.471 117.115 123.293 123.293C117.115 129.471 108.736 132.941 99.9998 132.941Z" fill="white"/>
</svg>
