<svg width="256" height="256" viewBox="0 0 256 256" fill="none" xmlns="http://www.w3.org/2000/svg">
<path d="M53.785 161.772C53.785 176.573 41.6938 188.664 26.8925 188.664C12.0912 188.664 0 176.573 0 161.772C0 146.971 12.0912 134.879 26.8925 134.879H53.785V161.772Z" fill="#E01E5A"/>
<path d="M67.3359 161.772C67.3359 146.971 79.4271 134.879 94.2284 134.879C109.03 134.879 121.121 146.971 121.121 161.772V229.107C121.121 243.909 109.03 256 94.2284 256C79.4271 256 67.3359 243.909 67.3359 229.107V161.772Z" fill="#E01E5A"/>
<path d="M94.2284 53.785C79.4271 53.785 67.3359 41.6938 67.3359 26.8925C67.3359 12.0912 79.4271 0 94.2284 0C109.03 0 121.121 12.0912 121.121 26.8925V53.785H94.2284Z" fill="#36C5F0"/>
<path d="M94.228 67.3357C109.029 67.3357 121.121 79.4269 121.121 94.2282C121.121 109.03 109.029 121.121 94.228 121.121H26.8925C12.0912 121.121 0 109.03 0 94.2282C0 79.4269 12.0912 67.3357 26.8925 67.3357H94.228Z" fill="#36C5F0"/>
<path d="M202.215 94.2282C202.215 79.4269 214.306 67.3357 229.107 67.3357C243.909 67.3357 256 79.4269 256 94.2282C256 109.03 243.909 121.121 229.107 121.121H202.215V94.2282Z" fill="#2EB67D"/>
<path d="M188.664 94.228C188.664 109.029 176.573 121.121 161.771 121.121C146.97 121.121 134.879 109.029 134.879 94.228V26.8925C134.879 12.0912 146.97 0 161.771 0C176.573 0 188.664 12.0912 188.664 26.8925V94.228Z" fill="#2EB67D"/>
<path d="M161.771 202.215C176.573 202.215 188.664 214.306 188.664 229.107C188.664 243.909 176.573 256 161.771 256C146.97 256 134.879 243.909 134.879 229.107V202.215H161.771Z" fill="#ECB22E"/>
<path d="M161.771 188.664C146.97 188.664 134.879 176.573 134.879 161.772C134.879 146.971 146.97 134.879 161.771 134.879H229.107C243.908 134.879 255.999 146.971 255.999 161.772C255.999 176.573 243.908 188.664 229.107 188.664H161.771Z" fill="#ECB22E"/>
</svg>
